#N canvas 0 23 578 467 10;
#X obj 271 51 metro 100;
#X obj 271 20 tgl 15 0 empty empty empty 17 7 0 10 -262144 -1 -1 1
1;
#X obj 273 152 route nose leftEye rightEye leftEar rightEar;
#X obj 273 179 unpack f f;
#X obj 274 208 /;
#X obj 326 208 /;
#X obj 274 318 osc~;
#X obj 274 230 * 108;
#X obj 274 252 mtof;
#X obj 274 296 line~;
#X obj 326 304 osc~;
#X obj 326 280 line~;
#X obj 326 232 * 100;
#X obj 306 365 *~;
#X obj 307 396 *~;
#X obj 400 278 vsl 15 128 0 0.5 0 0 empty empty vol 0 -9 0 10 -4034
-1 -1 0 1;
#X obj 305 426 dac~;
#X msg 467 44 \; pd dsp 1;
#X obj 400 116 nbx 4 14 -1e+37 1e+37 0 0 empty empty width 0 -8 0 10
-262144 -1 -1 600 256;
#X obj 512 114 nbx 4 14 -1e+37 1e+37 0 0 empty empty height 0 -8 0
10 -262144 -1 -1 400 256;
#X msg 326 256 \$1 20;
#X msg 274 274 \$1 20;
#X obj 271 84 runway-posenet http://localhost:8000/data;
#X obj 467 20 loadbang;
#X text 18 164 1 create a PoseNet model in Runway;
#X text 18 187 2 select http output;
#X text 18 294 server data path;
#X text 18 210 3 install purest_json external in Pd;
#X text 18 233 4 add the purest_json directory to your;
#X text 18 256 Pd path;
#X text 17 274 5 change runway-posenet to point to;
#X text 343 179 x and y data for nose;
#X text 352 208 scale 0-1;
#X obj 281 108 print;
#X text 145 106 to see all bodyparts:;
#X connect 0 0 22 0;
#X connect 1 0 0 0;
#X connect 2 0 3 0;
#X connect 3 0 4 0;
#X connect 3 1 5 0;
#X connect 4 0 7 0;
#X connect 5 0 12 0;
#X connect 6 0 13 0;
#X connect 7 0 8 0;
#X connect 8 0 21 0;
#X connect 9 0 6 0;
#X connect 10 0 13 1;
#X connect 11 0 10 0;
#X connect 12 0 20 0;
#X connect 13 0 14 0;
#X connect 14 0 16 0;
#X connect 14 0 16 1;
#X connect 15 0 14 1;
#X connect 18 0 4 1;
#X connect 19 0 5 1;
#X connect 20 0 11 0;
#X connect 21 0 9 0;
#X connect 22 0 2 0;
#X connect 22 1 18 0;
#X connect 22 2 19 0;
#X connect 23 0 17 0;
