#N canvas 785 75 450 693 10;
#X obj 218 157 json-decode;
#X obj 218 182 list trim;
#X obj 218 207 route data;
#X obj 218 232 json-decode;
#X obj 218 257 list trim;
#X obj 218 282 route poses size;
#X obj 317 326 json-decode;
#X obj 317 351 list trim;
#X obj 317 376 route width height;
#X obj 173 326 json-decode;
#X obj 173 351 list trim;
#X obj 173 376 route keypoints;
#X obj 173 401 json-decode;
#X obj 173 426 list trim;
#X obj 173 451 route score position part;
#X obj 169 544 symbol;
#X obj 222 477 json-decode;
#X obj 222 502 list trim;
#X obj 222 527 route x y;
#X obj 173 476 t b f;
#X obj 169 569 pack s f f f;
#X obj 297 477 symbol;
#X obj 169 594 list trim;
#X obj 169 619 outlet;
#X obj 317 401 outlet;
#X obj 361 401 outlet;
#X obj 218 132 rest;
#X obj 218 32 inlet;
#X obj 218 82 list prepend GET;
#X obj 218 107 list trim;
#X obj 295 30 symbol \$1;
#X obj 218 57 list;
#X obj 295 5 loadbang;
#X text 187 12 bang to read;
#X text 19 53 by Joel Matthys;
#X text 19 75 requires purest_json lib;
#X text 104 644 output is: bodyPart x y score;
#X text 19 31 runway-posenet;
#X connect 0 0 1 0;
#X connect 1 0 2 0;
#X connect 2 0 3 0;
#X connect 3 0 4 0;
#X connect 4 0 5 0;
#X connect 5 0 9 0;
#X connect 5 1 6 0;
#X connect 6 0 7 0;
#X connect 7 0 8 0;
#X connect 8 0 24 0;
#X connect 8 1 25 0;
#X connect 9 0 10 0;
#X connect 10 0 11 0;
#X connect 11 0 12 0;
#X connect 12 0 13 0;
#X connect 13 0 14 0;
#X connect 14 0 19 0;
#X connect 14 1 16 0;
#X connect 14 2 21 0;
#X connect 15 0 20 0;
#X connect 16 0 17 0;
#X connect 17 0 18 0;
#X connect 18 0 20 1;
#X connect 18 1 20 2;
#X connect 19 0 15 0;
#X connect 19 1 20 3;
#X connect 20 0 22 0;
#X connect 21 0 15 1;
#X connect 22 0 23 0;
#X connect 26 0 0 0;
#X connect 27 0 31 0;
#X connect 28 0 29 0;
#X connect 29 0 26 0;
#X connect 30 0 31 1;
#X connect 31 0 28 0;
#X connect 32 0 30 0;
